<svg width="24" height="24" viewBox="0 0 24 24" fill="none" xmlns="http://www.w3.org/2000/svg">
<path d="M17.3271 10.0945C17.0332 10.3884 17.0332 10.8649 17.3271 11.1589C17.621 11.4528 18.0976 11.4528 18.3915 11.1589L21.5785 7.97187C21.8724 7.67794 21.8724 7.20138 21.5785 6.90746L18.3915 3.72045C18.0976 3.42652 17.621 3.42652 17.3271 3.72045C17.0332 4.01438 17.0332 4.49093 17.3271 4.78486L19.2267 6.68444L2.75265 6.68444C2.33697 6.68444 2 7.02141 2 7.43709C2 7.85277 2.33697 8.18974 2.75265 8.18974L19.2318 8.18974L17.3271 10.0945Z" fill="white"/>
<path d="M6.67291 13.8422C6.96684 13.5483 6.96684 13.0717 6.67291 12.7778C6.37899 12.4839 5.90243 12.4839 5.6085 12.7778L2.4215 15.9648C2.12757 16.2588 2.12757 16.7353 2.4215 17.0292L5.60851 20.2162C5.90243 20.5102 6.37899 20.5102 6.67292 20.2162C6.96684 19.9223 6.96684 19.4458 6.67292 19.1518L4.77333 17.2523L21.2474 17.2523C21.663 17.2523 22 16.9153 22 16.4996C22 16.0839 21.663 15.747 21.2474 15.747L4.76819 15.747L6.67291 13.8422Z" fill="white"/>
</svg>
